<svg width="89" height="81" viewBox="0 0 89 81" fill="none" xmlns="http://www.w3.org/2000/svg">
<path d="M44.5 80.5C68.8005 80.5 88.5 60.8005 88.5 36.5C88.5 24.3333 83.559 15.4311 75.554 9.58702C67.5695 3.75789 56.579 1 44.5 1C32.421 1 21.4306 3.75789 13.446 9.58702C5.44101 15.4311 0.5 24.3333 0.5 36.5C0.5 60.8005 20.1995 80.5 44.5 80.5Z" fill="#FF0000" stroke="#FFB800"/>
<path d="M27.2632 70C28.6667 70.0583 30.0702 68.8385 32 68.8968C34.0175 68.8968 35.8596 68.8968 37.5263 68.8968C39.2807 68.8968 40.4211 68.8968 40.9474 68.8968C47.7018 68.8968 53.1404 67.7895 57.2632 65.575C61.4737 63.3022 63.5789 59.9804 63.5789 55.6096C63.5789 52.0548 62.5263 49.2866 60.4211 47.3052C58.3158 45.3238 55.5526 43.9251 52.1316 43.1093C48.7105 42.2934 44.9825 41.8855 40.9474 41.8855C38.3158 41.8855 35.9035 41.9146 33.7105 41.9729C31.6053 41.9729 29.5 42.0311 27.3947 42.1477V61.9035C27.3947 63.477 27.3509 64.8174 27.2632 65.9246C27.2632 67.0319 27.4386 69.2424 27.2632 70ZM27.3947 38.7385L37 38.5637C42 38.5054 45.9474 37.8352 48.8421 36.5531C51.7368 35.2128 53.7982 33.5519 55.0263 31.5705C56.3421 29.589 56.9561 27.5202 56.8684 25.364C56.7807 22.217 55.6842 19.8277 53.5789 18.1959C51.5614 16.5642 49.0614 15.4569 46.0789 14.8742C43.0965 14.2914 40.1579 14 37.2632 14C34.3684 14 32.2193 14.2622 30.8158 14.7867C29.4123 15.3112 28.4912 16.1854 28.0526 17.4092C27.614 18.633 27.3947 20.323 27.3947 22.4793V38.7385Z" fill="white"/>
<path d="M68.8421 25.8011C68.8421 27.6659 62.8772 38.3542 61.2105 40.2191C66.1228 43.1329 76.3421 50.5978 76.3421 55.0852M27.2632 70C28.6667 70.0583 30.0702 68.8385 32 68.8968C34.0175 68.8968 35.8596 68.8968 37.5263 68.8968C39.2807 68.8968 40.4211 68.8968 40.9474 68.8968C47.7018 68.8968 53.1404 67.7895 57.2632 65.575C61.4737 63.3022 63.5789 59.9804 63.5789 55.6096C63.5789 52.0548 62.5263 49.2866 60.4211 47.3052C58.3158 45.3238 55.5526 43.9251 52.1316 43.1093C48.7105 42.2934 44.9825 41.8855 40.9474 41.8855C38.3158 41.8855 35.9035 41.9146 33.7105 41.9729C31.6053 41.9729 29.5 42.0311 27.3947 42.1477V61.9035C27.3947 63.477 27.3509 64.8174 27.2632 65.9246C27.2632 67.0319 27.4386 69.2424 27.2632 70ZM27.3947 38.7385L37 38.5637C42 38.5054 45.9474 37.8352 48.8421 36.5531C51.7368 35.2128 53.7982 33.5519 55.0263 31.5705C56.3421 29.589 56.9561 27.5202 56.8684 25.364C56.7807 22.217 55.6842 19.8277 53.5789 18.1959C51.5614 16.5642 49.0614 15.4569 46.0789 14.8742C43.0965 14.2914 40.1579 14 37.2632 14C34.3684 14 32.2193 14.2622 30.8158 14.7867C29.4123 15.3112 28.4912 16.1854 28.0526 17.4092C27.614 18.633 27.3947 20.323 27.3947 22.4793V38.7385Z" stroke="white"/>
<path d="M28 68.998C29.3727 69.0542 30.7453 67.8781 32.6327 67.9343C34.6059 67.9343 36.4075 67.9343 38.0375 67.9343C39.7534 67.9343 40.8686 67.9343 41.3834 67.9343C47.9893 67.9343 53.3083 66.8666 57.3405 64.7312C61.4585 62.5397 63.5174 59.3367 63.5174 55.1221C63.5174 51.6943 62.4879 49.0251 60.429 47.1146C58.37 45.204 55.6676 43.8553 52.3217 43.0686C48.9759 42.2819 45.3298 41.8886 41.3834 41.8886C38.8097 41.8886 36.4504 41.9167 34.3056 41.9729C32.2466 41.9729 30.1877 42.0291 28.1287 42.1414V61.191C28.1287 62.7083 28.0858 64.0007 28 65.0684C28 66.1361 28.1716 68.2675 28 68.998ZM28.1287 38.8541L37.5228 38.6856C42.4129 38.6294 46.2735 37.9831 49.1046 36.7469C51.9357 35.4544 53.9517 33.8529 55.1528 31.9423C56.4397 30.0318 57.0402 28.0369 56.9544 25.9577C56.8686 22.9233 55.7962 20.6193 53.7373 19.0459C51.7641 17.4725 49.319 16.4048 46.4021 15.8429C43.4853 15.281 40.6113 15 37.7802 15C34.9491 15 32.8472 15.2529 31.4745 15.7586C30.1019 16.2644 29.2011 17.1073 28.7721 18.2873C28.3432 19.4674 28.1287 21.097 28.1287 23.1762V38.8541Z" fill="#FF0000"/>
<path d="M68.6649 26.3792C68.6649 28.1774 62.8311 38.4836 61.2011 40.2818C66.0054 43.0915 76 50.2895 76 54.6164M28 68.998C29.3727 69.0542 30.7453 67.8781 32.6327 67.9343C34.6059 67.9343 36.4075 67.9343 38.0375 67.9343C39.7534 67.9343 40.8686 67.9343 41.3834 67.9343C47.9893 67.9343 53.3083 66.8666 57.3405 64.7312C61.4585 62.5397 63.5174 59.3367 63.5174 55.1221C63.5174 51.6943 62.4879 49.0251 60.429 47.1146C58.37 45.204 55.6676 43.8553 52.3217 43.0686C48.9759 42.2819 45.3298 41.8886 41.3834 41.8886C38.8097 41.8886 36.4504 41.9167 34.3056 41.9729C32.2466 41.9729 30.1877 42.0291 28.1287 42.1414V61.191C28.1287 62.7083 28.0858 64.0007 28 65.0684C28 66.1361 28.1716 68.2675 28 68.998ZM28.1287 38.8541L37.5228 38.6856C42.4129 38.6294 46.2735 37.9831 49.1046 36.7469C51.9357 35.4544 53.9517 33.8529 55.1528 31.9423C56.4397 30.0318 57.0402 28.0369 56.9544 25.9577C56.8686 22.9233 55.7962 20.6193 53.7373 19.0459C51.7641 17.4725 49.319 16.4048 46.4021 15.8429C43.4853 15.281 40.6113 15 37.7802 15C34.9491 15 32.8472 15.2529 31.4745 15.7586C30.1019 16.2644 29.2011 17.1073 28.7721 18.2873C28.3432 19.4674 28.1287 21.097 28.1287 23.1762V38.8541Z" stroke="white"/>
</svg>
